<svg width="1024" height="1024" viewBox="0 0 1024 1024" fill="none" xmlns="http://www.w3.org/2000/svg">
<path d="M917.5 478.799L917.4 519.399L916.7 735.099V735.899C916.6 736.599 916.5 737.299 916.4 737.999C916.3 738.999 916.2 740.099 916 741.099C916 741.299 916 741.499 915.9 741.699C915.8 742.399 915.5 742.999 915.3 743.699C915 744.599 914.7 745.699 914.4 746.699C914.3 746.899 914.3 747.099 914.2 747.299C913.9 747.899 913.6 748.499 913.3 749.099C912.7 750.199 912.2 751.199 911.7 752.199C911.5 752.499 911.4 752.699 911.3 752.999C911 753.499 910.5 753.899 910.2 754.399C909.4 755.599 908.6 756.699 907.6 757.899C907.3 758.299 907.2 758.599 906.9 758.899C906.2 759.699 905.4 760.399 904.7 761.199C904.4 761.499 904.2 761.699 903.9 761.999C902.7 763.299 901.4 764.499 900 765.599C899.8 765.699 899.5 765.899 899.3 766.099C898.2 766.899 897.1 767.699 895.9 768.599C894.9 769.299 893.9 769.999 892.8 770.699C891.5 771.499 890.2 772.299 888.8 773.099C887.9 773.699 887 774.299 886 774.799C885.6 775.099 885.1 775.299 884.7 775.599L604.6 921.599C601.3 923.299 597.8 924.899 594.2 926.299C593.2 926.699 592.2 927.099 591 927.499C588.2 928.599 585.3 929.599 582.4 930.499C581.7 930.699 581.1 930.999 580.4 931.199C580 931.299 579.6 931.399 579.1 931.499C577.3 931.999 575.3 932.399 573.4 932.899C571.9 933.299 570.5 933.599 569.1 933.999C567.1 934.399 565 934.799 563 935.099C561.8 935.399 560.6 935.599 559.4 935.799C559.2 935.899 559 935.899 558.8 935.899C554.7 936.599 550.5 937.099 546.3 937.499C546 937.599 545.7 937.599 545.4 937.599C544.4 937.699 543.4 937.699 542.4 937.799C539.9 937.999 537.4 938.099 534.9 938.199C534.3 938.199 533.7 938.299 533.1 938.299H526.1V681.899C527.7 681.899 529.3 681.899 530.9 681.799C532.4 681.799 534.1 681.699 535.7 681.699C538.2 681.599 540.7 681.399 543.2 681.299C544.5 681.199 545.8 681.099 547.1 680.999C551.3 680.599 555.5 680.099 559.6 679.399C561 679.199 562.4 678.899 563.7 678.599C565.8 678.299 567.8 677.899 569.9 677.499C571.4 677.199 572.8 676.799 574.2 676.399C576.2 675.999 578.1 675.499 579.9 674.999C581 674.699 582 674.299 583.1 673.999C586 673.099 589 672.099 591.8 670.999C592.9 670.599 593.9 670.199 595 669.799C598.6 668.399 602.1 666.799 605.4 665.099L885.5 519.099C887 518.299 888.3 517.499 889.7 516.699C891 515.899 892.4 515.099 893.7 514.299C894.8 513.499 895.7 512.899 896.8 512.099C897.9 511.299 899.1 510.399 900.2 509.599C901.9 508.199 903.5 506.899 904.9 505.499C905.2 505.199 905.4 504.999 905.6 504.699C906.7 503.599 907.6 502.499 908.5 501.399C909.5 500.299 910.3 499.099 911.1 497.899C911.6 497.199 912.2 496.499 912.6 495.699C913.2 494.699 913.7 493.699 914.2 492.599C914.6 491.799 915 490.999 915.3 490.199C915.7 489.199 916 488.199 916.3 487.199C916.5 486.299 916.8 485.499 917 484.699C917.2 483.599 917.3 482.599 917.4 481.599C917.3 480.699 917.4 479.699 917.5 478.799Z" fill="url(#paint0_linear_98_2)"/>
<path d="M525.9 681.899V938.199H523.9C523.1 938.199 522.4 938.299 521.6 938.199C520.7 938.199 519.8 938.099 518.8 938.099C517 937.999 515.1 937.999 513.3 937.899C512.5 937.799 511.6 937.799 510.8 937.799C510 937.699 509 937.599 508.2 937.599C506.3 937.399 504.5 937.199 502.7 936.999C501.9 936.899 500.9 936.899 500.1 936.699C499.3 936.599 498.6 936.399 497.7 936.299C495.7 935.999 493.8 935.699 491.9 935.399C491 935.199 490 935.099 489.1 934.999C488.5 934.899 487.9 934.699 487.3 934.599C485 934.199 482.7 933.699 480.5 933.099C479.5 932.899 478.5 932.699 477.6 932.499C477.3 932.399 477 932.199 476.6 932.199C472.6 931.099 468.6 929.899 464.8 928.599C464.6 928.499 464.4 928.499 464.2 928.399C462.4 927.799 460.8 927.099 459.2 926.399C458.2 925.999 457.2 925.699 456.3 925.299C453.5 924.099 450.8 922.799 448.2 921.499L166.3 775.499C144.5 764.199 133.6 749.399 133.7 734.599L134.3 526.899L134.4 478.199C134.4 480.099 134.5 481.899 134.9 483.699C135.2 485.599 135.7 487.399 136.4 489.199C137.7 492.799 139.8 496.399 142.5 499.899C148 506.899 156.1 513.399 167 519.099L448.9 665.099C451.5 666.499 454.2 667.699 457 668.899C458 669.299 459 669.699 459.9 669.999C461.8 670.799 463.6 671.499 465.5 672.099C469.4 673.399 473.3 674.599 477.3 675.699L481.1 676.599C483.3 677.099 485.7 677.599 488 678.099C489.5 678.399 491.1 678.699 492.6 678.899C494.6 679.199 496.5 679.499 498.5 679.799C500.1 680.099 501.8 680.199 503.4 680.399C505.3 680.699 507.1 680.799 508.9 680.999C510.6 681.199 512.3 681.299 514 681.399C515.9 681.499 517.7 681.599 519.6 681.699C521.3 681.699 523 681.799 524.6 681.799H525.9V681.899Z" fill="url(#paint1_linear_98_2)"/>
<path d="M392.247 811.211C409.036 809.854 421.005 788.45 418.98 763.404C416.955 738.358 401.704 719.154 384.914 720.511C368.125 721.868 356.157 743.273 358.181 768.319C360.206 793.365 375.458 812.568 392.247 811.211Z" fill="#5747DB"/>
<path d="M372.6 801.998L389.2 803.098C403 803.998 413.9 788.098 413.6 767.698C413.3 747.298 401.8 729.898 388 728.998L371.4 727.898L372.6 801.998Z" fill="url(#paint2_linear_98_2)"/>
<path d="M371.4 727.999C385.2 728.899 396.7 746.199 397 766.599C397.3 786.999 386.4 802.899 372.6 801.999C358.8 801.099 347.3 783.799 347 763.399C346.7 742.999 357.6 727.099 371.4 727.999Z" fill="url(#paint3_linear_98_2)"/>
<path d="M369.1 728.9C382.9 729.8 394.4 747.1 394.7 767.5C395 787.9 384.1 803.8 370.3 802.9C356.5 802 345 784.7 344.7 764.3C344.4 743.9 355.3 728 369.1 728.9Z" fill="url(#paint4_linear_98_2)"/>
<path d="M242.652 736.016C259.441 734.658 271.41 713.254 269.385 688.208C267.36 663.162 252.109 643.959 235.32 645.316C218.531 646.673 206.562 668.077 208.587 693.123C210.611 718.169 225.863 737.373 242.652 736.016Z" fill="#5747DB"/>
<path d="M223 726.898L239.6 727.998C253.4 728.898 264.3 712.998 264 692.598C263.7 672.198 252.2 654.898 238.4 653.998L221.8 652.898L223 726.898Z" fill="url(#paint5_linear_98_2)"/>
<path d="M221.8 652.8C235.6 653.7 247.1 671 247.4 691.4C247.7 711.8 236.8 727.7 223 726.8C209.2 725.9 197.7 708.6 197.4 688.2C197.1 667.8 208 651.9 221.8 652.8Z" fill="url(#paint6_linear_98_2)"/>
<path d="M219.5 653.699C233.3 654.599 244.8 671.898 245.1 692.298C245.4 712.698 234.5 728.599 220.7 727.699C206.9 726.799 195.4 709.498 195.1 689.098C194.8 668.698 205.7 652.799 219.5 653.699Z" fill="url(#paint7_linear_98_2)"/>
<g opacity="0.5">
<path d="M917.5 482.299L917.4 515.799C917.4 531.899 895 544.099 885.4 549.199L605.3 695.199C583.4 706.599 554.6 712.199 525.9 711.999C498 711.799 470.2 706.199 448.9 695.199L167 549.199C158.4 544.699 134.2 534.899 134.2 519.799L134.3 481.799C134.3 483.699 134.4 485.499 134.8 487.299C135.1 489.199 135.6 490.999 136.3 492.799C137.6 496.399 139.7 499.999 142.4 503.499C147.9 510.499 156 516.999 166.9 522.699L448.8 668.699C451.4 670.099 454.1 671.299 456.9 672.499C457.9 672.899 458.9 673.299 459.8 673.599C461.7 674.399 463.5 675.099 465.4 675.699C469.3 676.999 473.2 678.199 477.2 679.299L481 680.199C483.2 680.699 485.6 681.199 487.9 681.699C489.4 681.999 491 682.299 492.5 682.499C494.5 682.799 496.4 683.099 498.4 683.399C500 683.699 501.7 683.799 503.3 683.999C505.2 684.299 507 684.399 508.8 684.599C510.5 684.799 512.2 684.899 513.9 684.999C515.8 685.099 517.6 685.199 519.5 685.299C521.2 685.299 522.9 685.399 524.5 685.399H525.8C527.4 685.399 529 685.399 530.6 685.299C532.1 685.299 533.8 685.199 535.4 685.199C537.9 685.099 540.4 684.899 542.9 684.799C544.2 684.699 545.5 684.599 546.8 684.499C551 684.099 555.2 683.599 559.3 682.899C560.7 682.699 562.1 682.399 563.4 682.099C565.5 681.799 567.5 681.399 569.6 680.999C571.1 680.699 572.5 680.299 573.9 679.899C575.9 679.499 577.8 678.999 579.6 678.499C580.7 678.199 581.7 677.799 582.8 677.499C585.7 676.599 588.7 675.599 591.5 674.499C592.6 674.099 593.6 673.699 594.7 673.299C598.3 671.899 601.8 670.299 605.1 668.599L885.2 522.599C886.7 521.799 888 520.999 889.4 520.199C890.7 519.399 892.1 518.599 893.4 517.799C894.5 516.999 895.4 516.399 896.5 515.599C897.6 514.799 898.8 513.899 899.9 513.099C901.6 511.699 903.2 510.399 904.6 508.999C904.9 508.699 905.1 508.499 905.3 508.199C906.4 507.099 907.3 505.999 908.2 504.899C909.2 503.799 910 502.599 910.8 501.399C911.3 500.699 911.9 499.999 912.3 499.199C912.9 498.199 913.4 497.199 913.9 496.099C914.3 495.299 914.7 494.499 915 493.699C915.4 492.699 915.7 491.699 916 490.699C916.2 489.799 916.5 488.999 916.7 488.199C916.9 487.099 917 486.099 917.1 485.099C917.3 484.299 917.4 483.299 917.5 482.299Z" fill="#5747DB"/>
</g>
<path d="M884.8 446.2C928.1 468.6 928.4 505 885.3 527.4L605.2 673.4C562.2 695.8 492.2 695.8 448.9 673.4L167 527.4C123.7 505 123.5 468.6 166.5 446.2L446.6 300.2C489.6 277.8 559.6 277.8 602.9 300.2L884.8 446.2Z" fill="url(#paint8_linear_98_2)"/>
<path d="M884.8 437.8C928.1 460.2 928.4 496.6 885.3 519L605.2 665C562.2 687.4 492.2 687.4 448.9 665L167 519C123.7 496.6 123.5 460.2 166.5 437.8L446.6 291.8C489.6 269.4 559.6 269.4 602.9 291.8L884.8 437.8Z" fill="url(#paint9_linear_98_2)"/>
<g opacity="0.5">
<path d="M828.6 476.3C827.9 467.2 822.9 458.6 814.3 451.3C810.5 448 805.9 445 800.6 442.3L775.4 429.2L759.9 421.2L756.5 419.4L754 418.1L747.8 414.8L729 405.1L724.9 402.9L721.8 401.3L679.8 379.5L667.2 373L635.7 356.7L627.3 352.3L597.9 337.1L589.3 332.7L587.6 331.8C576.8 326.2 564.2 322.4 550.9 320.2C539.4 318.3 527.4 317.7 515.6 318.4C496.3 319.4 477.6 323.9 462.5 331.8L384.5 372.5L371.9 379.1L330.3 400.8L327.2 402.4L323 404.6L304.2 414.4L297.7 417.8L295.1 419.2L291.7 421L276.3 429L250.8 442.3C245.2 445.2 240.5 448.5 236.5 451.9C228.2 459.3 223.5 467.8 223.1 476.8C223 477.3 223 477.8 223 478.3C223.1 492.3 233 505.2 251.2 514.6L464.1 624.9C481.4 633.9 504.1 638.3 526.7 638.3C549.4 638.3 572 633.8 589.2 624.9L801 514.6C818.9 505.2 828.8 492.4 828.7 478.6C828.7 477.8 828.7 477.1 828.6 476.3ZM801.9 498.8C801.8 498.8 801.8 498.8 801.7 498.9C801.5 499 801.4 499.1 801.2 499.3C801 499.4 801 499.5 800.8 499.5C798.7 500.9 796.4 502.3 793.9 503.7L582.4 614C566.9 622.1 546.4 626.1 525.9 625.9C506.1 625.7 486.4 621.7 471.3 614L258.4 503.7C247.8 498.3 241 491.6 238.4 484.6C237.7 482.5 237.2 480.4 237.2 478.3C237.2 469.1 244.6 460.2 258 453.2L290.4 436.3L305.8 428.2L309.2 426.4L311.8 425.1L318.3 421.7L337.2 411.9L341.3 409.7L344.4 408L386 386.3L398.6 379.7L469.6 342.7C471.7 341.6 473.9 340.6 476.2 339.7C490.4 333.8 507.7 330.8 525 330.8C527 330.8 529.1 330.9 531.1 331C547 331.6 562.6 334.8 575.6 340.4C577.4 341.1 579 341.9 580.6 342.7L584.4 344.6L613.9 359.9L622.4 364.3L653.3 380.3L665.9 386.8L707.9 408.6L711 410.2L715.2 412.4L734 422.1L740.2 425.4L742.7 426.7L746.1 428.5L761.5 436.5L793.7 453.2C805.2 459.1 812.3 466.6 814.3 474.3C814.7 475.7 814.9 477.1 814.9 478.5C814.9 480.3 814.7 482.2 814 484C812.1 489.3 808.1 494.3 801.9 498.8Z" fill="url(#paint10_linear_98_2)"/>
</g>
<path d="M814.7 369.199L814.6 399.199L814.1 476.699V477.299C814 477.799 813.9 478.299 813.9 478.799C813.8 479.499 813.7 480.299 813.6 481.099C813.6 481.199 813.6 481.399 813.5 481.499C813.4 481.999 813.2 482.499 813 482.999C812.8 483.699 812.6 484.399 812.3 485.199C812.2 485.299 812.2 485.499 812.1 485.699C811.9 486.099 811.6 486.599 811.4 486.999C811 487.799 810.6 488.499 810.2 489.299C810 489.499 810 489.699 809.9 489.899C809.7 490.299 809.3 490.599 809.1 490.999C808.5 491.899 807.9 492.699 807.2 493.599C807 493.899 806.9 494.099 806.7 494.299C806.2 494.899 805.6 495.399 805.1 495.999C804.9 496.199 804.7 496.399 804.5 496.599C803.6 497.499 802.6 498.399 801.6 499.299C801.4 499.399 801.2 499.499 801.1 499.699C800.3 500.299 799.4 500.899 798.6 501.599C797.9 502.099 797.2 502.699 796.3 503.199C795.4 503.799 794.4 504.399 793.4 504.999C792.7 505.399 792.1 505.899 791.3 506.299C791 506.499 790.6 506.699 790.3 506.899L583.8 614.099C581.4 615.399 578.8 616.499 576.1 617.599C575.4 617.899 574.6 618.199 573.8 618.499C571.7 619.299 569.6 619.999 567.4 620.699C566.9 620.799 566.4 621.099 566 621.199C565.7 621.299 565.4 621.299 565.1 621.399C563.8 621.799 562.3 622.099 560.9 622.499C559.8 622.799 558.8 622.999 557.7 623.299C556.2 623.599 554.7 623.899 553.2 624.099C552.3 624.299 551.4 624.499 550.6 624.599C550.4 624.599 550.3 624.599 550.1 624.599C547 625.099 543.9 625.499 540.8 625.799C540.6 625.799 540.3 625.899 540.1 625.899C539.4 625.899 538.6 625.999 537.9 625.999C536.1 626.099 534.2 626.199 532.4 626.299C532 626.299 531.5 626.299 531.1 626.399H525.9V518.999C527.1 518.999 528.3 518.999 529.5 518.999C530.6 518.999 531.8 518.999 533 518.899C534.9 518.899 536.7 518.699 538.5 518.599C539.4 518.599 540.4 518.499 541.4 518.399C544.5 518.099 547.6 517.699 550.7 517.199C551.7 517.099 552.8 516.799 553.8 516.599C555.4 516.399 556.9 516.099 558.4 515.799C559.5 515.599 560.5 515.299 561.6 514.999C563 514.699 564.4 514.299 565.8 513.899C566.6 513.699 567.4 513.399 568.1 513.199C570.3 512.499 572.4 511.799 574.5 510.999C575.3 510.699 576.1 510.399 576.8 510.099C579.4 508.999 582 507.899 584.5 506.599L791 398.899C792.1 398.299 793.1 397.699 794.1 397.099C795.1 396.499 796.1 395.899 797 395.299C797.8 394.699 798.5 394.199 799.3 393.699C800.1 393.099 801 392.399 801.8 391.799C803 390.799 804.2 389.799 805.3 388.799C805.5 388.599 805.7 388.399 805.8 388.199C806.6 387.399 807.3 386.599 808 385.699C808.7 384.899 809.3 383.999 809.9 383.099C810.3 382.599 810.7 381.999 811 381.499C811.5 380.799 811.8 379.999 812.2 379.199C812.5 378.599 812.8 377.999 813 377.399C813.3 376.699 813.5 375.999 813.7 375.199C813.9 374.499 814.1 373.899 814.2 373.299C814.4 372.499 814.4 371.699 814.5 370.999C814.6 370.599 814.7 369.799 814.7 369.199Z" fill="url(#paint11_linear_98_2)"/>
<path d="M525.8 518.999V626.399H524.3C523.7 626.399 523.2 626.399 522.6 626.399C521.9 626.399 521.3 626.399 520.5 626.299C519.2 626.299 517.8 626.199 516.4 626.099C515.8 626.099 515.2 626.099 514.5 625.999C513.9 625.999 513.2 625.899 512.6 625.799C511.2 625.699 509.9 625.499 508.5 625.399C507.9 625.399 507.2 625.299 506.6 625.199C506 625.099 505.5 624.999 504.8 624.899C503.4 624.699 502 624.499 500.5 624.199C499.8 624.099 499.1 623.999 498.4 623.899C498 623.799 497.5 623.699 497.1 623.599C495.4 623.299 493.7 622.899 492.1 622.499C491.4 622.399 490.7 622.199 490 622.099C489.7 621.999 489.5 621.899 489.3 621.899C486.4 621.099 483.4 620.199 480.6 619.299C480.4 619.299 480.3 619.199 480.2 619.199C478.9 618.699 477.7 618.299 476.5 617.799C475.8 617.499 475.1 617.299 474.4 616.999C472.3 616.099 470.3 615.199 468.4 614.199L260.5 506.299C244.4 497.999 236.4 486.999 236.5 476.099L237 404.599L237.1 368.699C237.1 370.099 237.2 371.399 237.5 372.799C237.8 374.199 238.1 375.499 238.6 376.899C239.6 379.599 241.1 382.199 243.1 384.799C247.1 389.899 253.1 394.799 261.2 398.999L469.1 506.699C471 507.699 473 508.599 475 509.499C475.7 509.799 476.4 510.099 477.1 510.299C478.5 510.899 479.8 511.399 481.2 511.899C484 512.899 486.9 513.799 489.9 514.499L492.7 515.199C494.4 515.599 496.1 515.899 497.8 516.299C498.9 516.499 500.1 516.699 501.2 516.899C502.6 517.099 504.1 517.399 505.5 517.599C506.7 517.799 507.9 517.899 509.1 518.099C510.5 518.299 511.8 518.399 513.2 518.499C514.4 518.599 515.7 518.699 517 518.799C518.4 518.899 519.7 518.899 521.1 518.999C522.3 518.999 523.6 518.999 524.8 519.099H525.8V518.999Z" fill="url(#paint12_linear_98_2)"/>
<g opacity="0.5">
<path d="M814.7 371.8L814.6 396.5C814.6 408.4 798.1 417.4 791 421.1L584.4 528.8C568.3 537.2 547 541.3 525.9 541.2C505.3 541.1 484.8 536.9 469.1 528.8L261.1 421.1C254.8 417.8 236.9 410.5 236.9 399.4L237 371.4C237 372.8 237.1 374.1 237.4 375.5C237.7 376.9 238 378.2 238.5 379.6C239.5 382.3 241 384.9 243 387.5C247 392.6 253 397.5 261.1 401.7L469 509.4C470.9 510.4 472.9 511.3 474.9 512.2C475.6 512.5 476.3 512.8 477 513C478.4 513.6 479.7 514.1 481.1 514.6C483.9 515.6 486.8 516.5 489.8 517.2L492.6 517.9C494.3 518.3 496 518.6 497.7 519C498.8 519.2 500 519.4 501.1 519.6C502.5 519.8 504 520.1 505.4 520.3C506.6 520.5 507.8 520.6 509 520.8C510.4 521 511.7 521.1 513.1 521.2C514.3 521.3 515.6 521.4 516.9 521.5C518.3 521.6 519.6 521.6 521 521.7C522.2 521.7 523.5 521.7 524.7 521.8H525.6C526.8 521.8 528 521.8 529.2 521.8C530.3 521.8 531.5 521.8 532.7 521.7C534.6 521.7 536.4 521.5 538.2 521.4C539.1 521.4 540.1 521.3 541.1 521.2C544.2 520.9 547.3 520.5 550.4 520C551.4 519.9 552.5 519.6 553.5 519.4C555.1 519.2 556.6 518.9 558.1 518.6C559.2 518.4 560.2 518.1 561.3 517.8C562.7 517.5 564.1 517.1 565.5 516.7C566.3 516.5 567.1 516.2 567.8 516C570 515.3 572.1 514.6 574.2 513.8C575 513.5 575.8 513.2 576.5 512.9C579.1 511.8 581.7 510.7 584.2 509.4L791 401.5C792.1 400.9 793.1 400.3 794.1 399.7C795.1 399.1 796.1 398.5 797 397.9C797.8 397.3 798.5 396.8 799.3 396.3C800.1 395.7 801 395 801.8 394.4C803 393.4 804.2 392.4 805.3 391.4C805.5 391.2 805.7 391 805.8 390.8C806.6 390 807.3 389.2 808 388.3C808.7 387.5 809.3 386.6 809.9 385.7C810.3 385.2 810.7 384.6 811 384.1C811.5 383.4 811.8 382.6 812.2 381.8C812.5 381.2 812.8 380.6 813 380C813.3 379.3 813.5 378.6 813.7 377.8C813.9 377.1 814.1 376.5 814.2 375.9C814.4 375.1 814.4 374.3 814.5 373.6C814.6 373.2 814.7 372.5 814.7 371.8Z" fill="#5747DB"/>
</g>
<path d="M790.6 345.099C822.6 361.699 822.7 388.499 791 404.999L584.4 512.799C552.7 529.299 501 529.399 469.1 512.799L261.1 405.099C229.1 388.499 229 361.699 260.7 345.199L467.3 237.499C499.1 220.899 550.7 220.899 582.6 237.499L790.6 345.099Z" fill="url(#paint13_linear_98_2)"/>
<path d="M790.6 339C822.6 355.6 822.7 382.4 791 398.9L584.4 506.6C552.7 523.1 501 523.2 469.1 506.6L261.1 398.9C229.1 382.3 229 355.5 260.7 339L467.3 231.3C499.1 214.7 550.7 214.7 582.6 231.3L790.6 339Z" fill="url(#paint14_linear_98_2)"/>
<path d="M878.1 298.799L878 335.299L877.4 429.699V430.399C877.3 430.999 877.2 431.599 877.1 432.299C877 433.199 876.9 434.199 876.7 435.099C876.7 435.299 876.7 435.399 876.6 435.599C876.5 436.199 876.2 436.799 876 437.399C875.7 438.199 875.5 439.199 875.2 440.099C875.1 440.299 875.1 440.399 875 440.699C874.7 441.199 874.4 441.799 874.2 442.299C873.7 443.299 873.3 444.199 872.7 445.099C872.5 445.299 872.4 445.599 872.3 445.799C872 446.299 871.6 446.599 871.3 447.099C870.6 448.199 869.9 449.199 869 450.199C868.7 450.499 868.6 450.799 868.4 451.099C867.8 451.799 867.1 452.499 866.4 453.099C866.1 453.299 866 453.599 865.7 453.799C864.6 454.899 863.4 455.999 862.2 457.099C862 457.199 861.8 457.399 861.6 457.599C860.7 458.299 859.6 459.099 858.5 459.899C857.6 460.499 856.7 461.199 855.7 461.799C854.6 462.499 853.4 463.299 852.1 463.899C851.3 464.399 850.5 464.999 849.6 465.399C849.2 465.599 848.8 465.899 848.4 466.099L596.5 597.399C593.5 598.899 590.4 600.299 587.1 601.599C586.2 601.999 585.3 602.299 584.3 602.699C581.8 603.699 579.2 604.599 576.5 605.399C575.9 605.599 575.3 605.899 574.7 605.999C574.3 606.099 573.9 606.199 573.6 606.299C572 606.799 570.2 607.099 568.5 607.599C567.2 607.899 565.9 608.199 564.6 608.599C562.8 608.899 560.9 609.299 559.1 609.599C558 609.799 557 610.099 555.9 610.199C555.7 610.299 555.5 610.299 555.3 610.299C551.6 610.899 547.8 611.399 544 611.699C543.7 611.799 543.4 611.799 543.2 611.799C542.3 611.899 541.4 611.899 540.5 611.999C538.3 612.199 536 612.299 533.8 612.399C533.3 612.399 532.7 612.499 532.2 612.499H525.9V481.499C527.4 481.499 528.8 481.499 530.2 481.399C531.6 481.399 533 481.299 534.5 481.299C536.8 481.199 539 481.099 541.2 480.899C542.3 480.799 543.5 480.699 544.7 480.599C548.5 480.299 552.3 479.799 556 479.199C557.3 478.999 558.5 478.699 559.7 478.499C561.6 478.199 563.4 477.899 565.3 477.499C566.6 477.199 567.9 476.899 569.1 476.499C570.9 476.099 572.6 475.599 574.3 475.199C575.2 474.899 576.2 474.599 577.1 474.299C579.7 473.499 582.4 472.599 584.9 471.599C585.8 471.299 586.8 470.899 587.7 470.499C590.9 469.199 594.1 467.799 597.1 466.299L849.2 334.999C850.5 334.299 851.7 333.599 853 332.799C854.2 332.099 855.5 331.399 856.6 330.699C857.5 329.999 858.4 329.399 859.4 328.699C860.4 327.999 861.5 327.199 862.4 326.399C863.9 325.199 865.4 323.999 866.6 322.699C866.9 322.499 867 322.199 867.2 321.999C868.1 320.999 869 319.999 869.8 318.999C870.7 317.999 871.4 316.999 872.1 315.899C872.5 315.299 873 314.599 873.4 313.899C874 312.999 874.4 312.099 874.9 311.099C875.3 310.399 875.7 309.699 875.9 308.999C876.3 308.099 876.5 307.199 876.8 306.299C877 305.499 877.2 304.799 877.4 303.999C877.6 302.999 877.6 302.099 877.8 301.199C877.9 300.499 878 299.599 878.1 298.799Z" fill="url(#paint15_linear_98_2)"/>
<path d="M525.9 481.499V612.399H524.1C523.4 612.399 522.7 612.499 522 612.399C521.2 612.399 520.4 612.299 519.5 612.299C517.9 612.199 516.2 612.199 514.5 612.099C513.7 611.999 513 611.999 512.2 611.999C511.4 611.899 510.6 611.799 509.9 611.799C508.2 611.599 506.6 611.499 504.9 611.299C504.1 611.199 503.3 611.199 502.6 611.099C501.9 610.999 501.2 610.899 500.5 610.799C498.7 610.599 497 610.299 495.3 609.999C494.5 609.799 493.6 609.799 492.8 609.599C492.3 609.499 491.7 609.299 491.2 609.199C489.1 608.799 487.1 608.399 485.1 607.799C484.2 607.599 483.3 607.499 482.5 607.299C482.2 607.199 481.9 607.099 481.6 606.999C478 605.999 474.4 604.999 470.9 603.799C470.7 603.699 470.5 603.699 470.4 603.599C468.8 602.999 467.4 602.499 465.9 601.799C465 601.499 464.1 601.199 463.3 600.799C460.8 599.699 458.3 598.599 456 597.399L202.4 465.999C182.8 455.899 173 442.499 173.1 429.199L173.7 341.999L173.8 298.199C173.8 299.899 173.9 301.499 174.2 303.199C174.5 304.899 175 306.499 175.6 308.199C176.8 311.499 178.6 314.699 181.1 317.799C186 324.099 193.3 329.999 203.2 335.099L456.7 466.399C459 467.599 461.5 468.799 463.9 469.799C464.8 470.199 465.7 470.499 466.5 470.799C468.2 471.499 469.8 472.199 471.5 472.699C475 473.899 478.5 474.999 482.2 475.899L485.6 476.699C487.6 477.199 489.7 477.599 491.8 478.099C493.2 478.299 494.6 478.599 495.9 478.799C497.7 479.099 499.4 479.399 501.2 479.599C502.6 479.799 504.2 479.999 505.6 480.199C507.3 480.399 508.9 480.599 510.6 480.699C512.1 480.899 513.7 480.999 515.2 480.999C516.9 481.099 518.5 481.199 520.2 481.299C521.7 481.299 523.2 481.399 524.7 481.399H525.9V481.499Z" fill="url(#paint16_linear_98_2)"/>
<g opacity="0.5">
<path d="M878.1 302L878 332.1C878 346.5 857.8 357.6 849.2 362.1L597.3 493.5C577.6 503.7 551.7 508.8 525.9 508.6C500.8 508.4 475.8 503.4 456.7 493.5L203.2 362.1C195.5 358.1 173.7 349.2 173.7 335.6L173.8 301.4C173.8 303.1 173.9 304.7 174.2 306.4C174.5 308.1 175 309.7 175.6 311.4C176.8 314.7 178.6 317.9 181.1 321C186 327.3 193.3 333.2 203.2 338.3L456.7 469.6C459 470.8 461.5 472 463.9 473C464.8 473.4 465.7 473.7 466.5 474C468.2 474.7 469.8 475.4 471.5 475.9C475 477.1 478.5 478.2 482.2 479.1L485.6 479.9C487.6 480.4 489.7 480.8 491.8 481.3C493.2 481.5 494.6 481.8 495.9 482C497.7 482.3 499.4 482.6 501.2 482.8C502.6 483 504.2 483.2 505.6 483.4C507.3 483.6 508.9 483.8 510.6 483.9C512.1 484.1 513.7 484.2 515.2 484.2C516.9 484.3 518.5 484.4 520.2 484.5C521.7 484.5 523.2 484.6 524.7 484.6H525.8C527.3 484.6 528.7 484.6 530.1 484.5C531.5 484.5 532.9 484.4 534.4 484.4C536.7 484.3 538.9 484.2 541.1 484C542.2 483.9 543.4 483.8 544.6 483.7C548.4 483.4 552.2 482.9 555.9 482.3C557.2 482.1 558.4 481.8 559.6 481.6C561.5 481.3 563.3 481 565.2 480.6C566.5 480.3 567.8 480 569 479.6C570.8 479.2 572.5 478.7 574.2 478.3C575.1 478 576.1 477.7 577 477.4C579.6 476.6 582.3 475.7 584.8 474.7C585.7 474.4 586.7 474 587.6 473.6C590.8 472.3 594 470.9 597 469.4L848.9 338C850.2 337.3 851.4 336.6 852.7 335.8C853.9 335.1 855.2 334.4 856.3 333.7C857.2 333 858.1 332.4 859.1 331.7C860.1 331 861.2 330.2 862.1 329.4C863.6 328.2 865.1 327 866.3 325.7C866.6 325.5 866.7 325.2 866.9 325C867.8 324 868.7 323 869.5 322C870.4 321 871.1 320 871.8 318.9C872.2 318.3 872.7 317.6 873.1 316.9C873.7 316 874.1 315.1 874.6 314.1C875 313.4 875.4 312.7 875.6 312C876 311.1 876.2 310.2 876.5 309.3C876.7 308.5 876.9 307.8 877.1 307C877.3 306 877.3 305.1 877.5 304.2C877.9 303.7 878 302.8 878.1 302Z" fill="#5747DB"/>
</g>
<path d="M848.7 269.499C887.7 289.699 887.9 322.399 849.2 342.599L597.2 473.899C558.5 494.099 495.6 494.099 456.6 473.899L203.1 342.599C164.1 322.399 164 289.699 202.6 269.499L454.5 138.099C493.2 117.899 556.1 117.899 595.1 138.099L848.7 269.499Z" fill="url(#paint17_linear_98_2)"/>
<path d="M878.1 298.9C878.1 299.3 878.1 299.7 878 300.1C878 300.9 877.9 301.7 877.8 302.5C877.8 303.1 877.6 303.7 877.5 304.3C877.3 305 877.1 305.7 876.9 306.5C876.9 306.5 876.9 306.5 876.9 306.6C875.4 312 872.2 317.3 867.3 322.2C867.1 322.4 866.9 322.6 866.7 322.8C863.9 325.6 860.5 328.2 856.7 330.7C856.5 330.9 856.3 331 856.1 331.1C855.1 331.7 854.1 332.2 853.1 332.9C851.8 333.6 850.7 334.3 849.3 335.1L810.4 355.4L807 357.2H806.9L768 377.3L760 381.5L743.5 390.1L735 394.5L721.7 401.5L707.7 408.8L597.2 466.4C595.2 467.4 593.2 468.4 591 469.3C590 469.8 589.1 470.2 588 470.6C586.8 471.2 585.6 471.6 584.3 472C582.2 472.9 580.1 473.6 578 474.2C576.1 474.9 574.1 475.5 572.1 476C569.5 476.7 566.9 477.4 564.3 477.9C562.8 478.2 561.3 478.5 559.6 478.7C558.2 479.1 556.7 479.3 555.3 479.5C552.2 480 549.1 480.4 545.9 480.7C543.3 481 540.6 481.2 537.9 481.3C534 481.5 529.9 481.7 525.9 481.6C523.2 481.6 520.5 481.5 517.8 481.4C516.9 481.4 516 481.4 515.2 481.2C513 481.1 510.6 480.9 508.4 480.6C508.2 480.7 508 480.7 507.8 480.6C504.8 480.3 501.7 479.9 498.8 479.4C496.5 479.1 494.2 478.7 491.9 478.2C491.8 478.2 491.8 478.2 491.7 478.2C489.9 477.8 488.2 477.4 486.4 477C484.5 476.7 482.6 476.2 480.7 475.6C478 474.8 475.3 474 472.6 473.1C472.2 473 471.9 472.9 471.6 472.8C469.1 471.9 466.6 471 464.2 469.9C461.6 468.9 459.1 467.7 456.7 466.4L344.4 408.2L330.4 401L291.8 381L283.7 376.8L245 356.8L241.5 355L203.1 335C194.5 330.6 187.8 325.6 183 320.1C181.6 318.6 180.4 317 179.3 315.5C178.3 313.9 177.4 312.3 176.6 310.7C175.3 307.9 174.4 305 174 302.1C173.8 300.8 173.7 299.6 173.7 298.3C173.7 285.2 183.3 272 202.6 262L242.1 241.4L250.7 236.9L392.6 162.9L401.4 158.3H401.5L454.5 130.7C493.2 110.4 556.1 110.4 595.1 130.7L780.3 226.6L788.8 231L848.7 262C868.3 272.1 878.2 285.5 878.1 298.9Z" fill="url(#paint18_linear_98_2)"/>
<g opacity="0.5">
<path d="M772.9 266L748.6 253.4L740 249L581.3 166.8C549.6 150.4 500.2 150.4 468.7 166.8L444.6 179.4L435.8 184L292.8 258.6L284.2 263.2H284.1L278.4 266.2C262.3 274.6 253.4 286.1 253.4 298.6C253.5 310.7 261.9 322 277.3 330.4C277.8 330.6 278.3 331 278.8 331.2L283.2 333.4L325.1 355.2L333.2 359.4L371.8 379.4L385.8 386.6L470.3 430.4C485.8 438.5 506.2 442.5 526.6 442.5C547 442.5 567.3 438.4 582.8 430.4L665.7 387.2L679.7 379.9L694.2 372.4L702.7 367.9L718 360L726 355.8L768.2 333.8L773.2 331.2C773.5 331 773.8 330.9 774.1 330.7C789.6 322.3 798.2 311 798.2 298.8C798.2 286.1 789.2 274.4 772.9 266ZM767 321.2L761.7 324L755.7 327L713.5 349L705.5 353.2L690.5 361L682 365.4L667.2 373.2L653.2 380.5L576.6 420.5C549.2 434.7 504.4 434.7 476.8 420.4L398.6 379.9L384.6 372.7L346.1 352.7L338 348.5L296 326.7L290.1 323.7L285.3 321.2C273 314.9 266.3 306.8 266.3 298.4C266.3 290.2 272.9 282.1 285 275.8L297 269.6L305.6 265L448.8 190.3L457.4 185.8L475.3 176.5C489.1 169.4 507.1 165.8 525.2 165.8C543.3 165.8 561.5 169.4 575.2 176.6L679.4 230.6L698.6 240.6L728 255.8L736.5 260.2L766.7 275.8C778.9 282.1 785.8 290.2 785.8 298.6C785.6 306.9 779 314.9 767 321.2Z" fill="white"/>
</g>
<path d="M372.8 366.2L650.8 216L631.5 206L352.8 355.9L372.8 366.2Z" fill="url(#paint19_linear_98_2)"/>
<path d="M420.7 390.8L698.7 240.5L679.4 230.5L400.7 380.4L420.7 390.8Z" fill="url(#paint20_linear_98_2)"/>
<path d="M609.8 560.9L676.8 525.3V498.4L609.8 534V560.9Z" fill="white"/>
<path d="M688.2 522.3L709.1 511V484.1L688.2 495.4V522.3Z" fill="url(#paint21_linear_98_2)"/>
<path d="M868.9 620.199V695.399L614.3 830.399V755.199L832.4 639.599L868.9 620.199Z" fill="url(#paint22_linear_98_2)"/>
<g opacity="0.5">
<path d="M814.7 363.4V407.4L645.9 497.1V529.4L640.7 529.9V494.2L809.5 404.5V366.2L814.7 363.4Z" fill="white"/>
</g>
<path d="M868.9 620.199V695.399L832.4 639.599L868.9 620.199Z" fill="url(#paint23_linear_98_2)"/>
<path d="M576.8 205.999L547.7 220.499L537.5 225.599L372 308.099L351.7 297.699L345.8 294.599L296.9 269.599L284.3 263.099H284.2L249.4 245.099L242.1 241.399L250.8 236.899L258 240.699L293 258.499L305.5 264.999L354.5 290.099L360.4 293.199L372 299.099L520.6 225.099L532.9 218.999L559 205.999L526 189.299L486.8 210.599L448.8 190.299L444.9 188.299L435.9 183.899L400.2 166.499L392.7 162.899L401.5 158.299H401.6L409 161.999L444.8 179.299L448.6 181.199L457.3 185.799L486.7 201.399L525.9 180.299L576.8 205.999Z" fill="url(#paint24_linear_98_2)"/>
<path d="M780.3 226.6L773.4 230.5L740.1 249L727.9 255.8L680.8 282.1L675 285.3L634.1 308L626.4 312.3L589.3 332.9L575.6 340.6L516.7 373.3L568.2 395.3L622.3 364.5L635.7 356.9L650.8 348.3L682 365.5L694.3 372.2L735 394.5L743.5 390.1L702.8 367.7L690.5 361.1L650.7 339.2L627.3 352.5L613.8 360.1L567.7 386.3L534.9 372.4L584.4 344.8L597.9 337.3L634.9 316.7L642.7 312.4L683.5 289.7L689.2 286.5L736.4 260.2L748.6 253.4L781.9 234.9L788.8 231L780.3 226.6Z" fill="url(#paint25_linear_98_2)"/>
<path d="M545.079 408.552C570.171 407.187 589.889 394.636 589.121 380.519C588.353 366.401 567.389 356.064 542.298 357.429C517.207 358.794 497.489 371.345 498.257 385.462C499.025 399.579 519.988 409.917 545.079 408.552Z" fill="#5747DB"/>
<path d="M507.5 369.5L506.4 383.4C505.5 395 521.4 404.1 541.8 403.9C562.2 403.6 579.5 394 580.4 382.5L581.5 368.6L507.5 369.5Z" fill="url(#paint26_linear_98_2)"/>
<path d="M581.6 368.601C580.7 380.201 563.4 389.801 543 390.001C522.6 390.301 506.7 381.101 507.6 369.501C508.5 357.901 525.8 348.301 546.2 348.101C566.6 347.901 582.5 357.001 581.6 368.601Z" fill="url(#paint27_linear_98_2)"/>
<path d="M580.7 366.7C579.8 378.3 562.5 387.9 542.1 388.1C521.7 388.4 505.8 379.2 506.7 367.6C507.6 356 524.9 346.4 545.3 346.2C565.7 345.9 581.6 355.1 580.7 366.7Z" fill="url(#paint28_linear_98_2)"/>
<path d="M360.883 319.255C385.974 317.89 405.692 305.339 404.924 291.222C404.156 277.104 383.193 266.767 358.101 268.132C333.01 269.497 313.292 282.048 314.06 296.165C314.828 310.282 335.791 320.62 360.883 319.255Z" fill="#5747DB"/>
<path d="M323.4 280.3L322.3 294.2C321.4 305.8 337.3 314.9 357.7 314.7C378.1 314.4 395.4 304.8 396.3 293.3L397.4 279.4L323.4 280.3Z" fill="url(#paint29_linear_98_2)"/>
<path d="M397.4 279.3C396.5 290.9 379.2 300.5 358.8 300.7C338.4 301 322.5 291.8 323.4 280.2C324.3 268.6 341.6 259 362 258.8C382.5 258.6 398.3 267.8 397.4 279.3Z" fill="url(#paint30_linear_98_2)"/>
<path d="M396.5 277.4C395.6 289 378.3 298.6 357.9 298.8C337.5 299.1 321.6 289.9 322.5 278.3C323.4 266.7 340.7 257.1 361.1 256.9C381.6 256.6 397.4 265.8 396.5 277.4Z" fill="url(#paint31_linear_98_2)"/>
<defs>
<linearGradient id="paint0_linear_98_2" x1="525.935" y1="708.483" x2="917.514" y2="708.483" gradientUnits="userSpaceOnUse">
<stop offset="0.00515464" stop-color="#C5BAFE"/>
<stop offset="1" stop-color="#7D6FF8"/>
</linearGradient>
<linearGradient id="paint1_linear_98_2" x1="133.654" y1="708.215" x2="525.935" y2="708.215" gradientUnits="userSpaceOnUse">
<stop offset="0.00515464" stop-color="#C5BAFE"/>
<stop offset="1" stop-color="#7D6FF8"/>
</linearGradient>
<linearGradient id="paint2_linear_98_2" x1="393.283" y1="803.411" x2="398.522" y2="729.696" gradientUnits="userSpaceOnUse">
<stop offset="0.00515464" stop-color="#8BDFFF"/>
<stop offset="1" stop-color="#77C9FF"/>
</linearGradient>
<linearGradient id="paint3_linear_98_2" x1="385.448" y1="732.229" x2="362.97" y2="789.406" gradientUnits="userSpaceOnUse">
<stop offset="0.00515464" stop-color="#B3FFFF"/>
<stop offset="1" stop-color="#83DAFF"/>
</linearGradient>
<linearGradient id="paint4_linear_98_2" x1="345.946" y1="760.047" x2="392.605" y2="772.561" gradientUnits="userSpaceOnUse">
<stop offset="0.00515464" stop-color="#8BDFFF"/>
<stop offset="1" stop-color="#77C9FF"/>
</linearGradient>
<linearGradient id="paint5_linear_98_2" x1="243.69" y1="728.237" x2="248.929" y2="654.521" gradientUnits="userSpaceOnUse">
<stop offset="0.00515464" stop-color="#8BDFFF"/>
<stop offset="1" stop-color="#77C9FF"/>
</linearGradient>
<linearGradient id="paint6_linear_98_2" x1="235.864" y1="657.057" x2="213.386" y2="714.234" gradientUnits="userSpaceOnUse">
<stop offset="0.00515464" stop-color="#B3FFFF"/>
<stop offset="1" stop-color="#83DAFF"/>
</linearGradient>
<linearGradient id="paint7_linear_98_2" x1="196.363" y1="684.873" x2="243.021" y2="697.387" gradientUnits="userSpaceOnUse">
<stop offset="0.00515464" stop-color="#8BDFFF"/>
<stop offset="1" stop-color="#77C9FF"/>
</linearGradient>
<linearGradient id="paint8_linear_98_2" x1="525.963" y1="718.893" x2="525.963" y2="285.184" gradientUnits="userSpaceOnUse">
<stop offset="0.00515464" stop-color="#C1B7FE"/>
<stop offset="1" stop-color="white"/>
</linearGradient>
<linearGradient id="paint9_linear_98_2" x1="134.441" y1="478.464" x2="917.485" y2="478.464" gradientUnits="userSpaceOnUse">
<stop stop-color="#7D6FF8"/>
<stop offset="0.9948" stop-color="#5747DB"/>
</linearGradient>
<linearGradient id="paint10_linear_98_2" x1="223.158" y1="478.357" x2="828.703" y2="478.357" gradientUnits="userSpaceOnUse">
<stop stop-color="#7D6FF8"/>
<stop offset="0.9948" stop-color="#5747DB"/>
</linearGradient>
<linearGradient id="paint11_linear_98_2" x1="525.843" y1="497.778" x2="814.719" y2="497.778" gradientUnits="userSpaceOnUse">
<stop offset="0.00515464" stop-color="#8574FD"/>
<stop offset="1" stop-color="#715EF5"/>
</linearGradient>
<linearGradient id="paint12_linear_98_2" x1="236.449" y1="497.58" x2="525.843" y2="497.58" gradientUnits="userSpaceOnUse">
<stop offset="0.00515464" stop-color="#8574FD"/>
<stop offset="1" stop-color="#715EF5"/>
</linearGradient>
<linearGradient id="paint13_linear_98_2" x1="525.864" y1="546.304" x2="525.864" y2="226.348" gradientUnits="userSpaceOnUse">
<stop offset="0.00515464" stop-color="#C1B7FE"/>
<stop offset="1" stop-color="white"/>
</linearGradient>
<linearGradient id="paint14_linear_98_2" x1="237.03" y1="368.936" x2="814.697" y2="368.936" gradientUnits="userSpaceOnUse">
<stop offset="0.00515464" stop-color="#6052E9"/>
<stop offset="1" stop-color="#8071FE"/>
</linearGradient>
<linearGradient id="paint15_linear_98_2" x1="525.9" y1="455.58" x2="878.089" y2="455.58" gradientUnits="userSpaceOnUse">
<stop offset="0.00515464" stop-color="#C5BAFE"/>
<stop offset="1" stop-color="#7D6FF8"/>
</linearGradient>
<linearGradient id="paint16_linear_98_2" x1="173.079" y1="455.339" x2="525.9" y2="455.339" gradientUnits="userSpaceOnUse">
<stop offset="0.00515464" stop-color="#C5BAFE"/>
<stop offset="1" stop-color="#7D6FF8"/>
</linearGradient>
<linearGradient id="paint17_linear_98_2" x1="525.925" y1="514.742" x2="525.925" y2="124.66" gradientUnits="userSpaceOnUse">
<stop offset="0.00515464" stop-color="#C1B7FE"/>
<stop offset="1" stop-color="white"/>
</linearGradient>
<linearGradient id="paint18_linear_98_2" x1="173.76" y1="298.482" x2="878.101" y2="298.482" gradientUnits="userSpaceOnUse">
<stop offset="0.00515464" stop-color="#C1B7FE"/>
<stop offset="1" stop-color="#7D6FF8"/>
</linearGradient>
<linearGradient id="paint19_linear_98_2" x1="352.793" y1="286.098" x2="650.772" y2="286.098" gradientUnits="userSpaceOnUse">
<stop stop-color="#7D6FF8"/>
<stop offset="0.9948" stop-color="#5747DB"/>
</linearGradient>
<linearGradient id="paint20_linear_98_2" x1="400.68" y1="310.659" x2="698.659" y2="310.659" gradientUnits="userSpaceOnUse">
<stop stop-color="#7D6FF8"/>
<stop offset="0.9948" stop-color="#5747DB"/>
</linearGradient>
<linearGradient id="paint21_linear_98_2" x1="688.197" y1="503.231" x2="709.121" y2="503.231" gradientUnits="userSpaceOnUse">
<stop offset="0.00515464" stop-color="#D79FFF"/>
<stop offset="1" stop-color="#C389FF"/>
</linearGradient>
<linearGradient id="paint22_linear_98_2" x1="614.313" y1="725.283" x2="868.891" y2="725.283" gradientUnits="userSpaceOnUse">
<stop stop-color="#7D6FF8"/>
<stop offset="0.9948" stop-color="#5747DB"/>
</linearGradient>
<linearGradient id="paint23_linear_98_2" x1="850.64" y1="620.084" x2="850.64" y2="740.195" gradientUnits="userSpaceOnUse">
<stop offset="0.00515464" stop-color="#C5BAFE"/>
<stop offset="1" stop-color="#7D6FF8"/>
</linearGradient>
<linearGradient id="paint24_linear_98_2" x1="242.129" y1="233.176" x2="576.845" y2="233.176" gradientUnits="userSpaceOnUse">
<stop offset="0.00515464" stop-color="#C5BAFE"/>
<stop offset="1" stop-color="#7D6FF8"/>
</linearGradient>
<linearGradient id="paint25_linear_98_2" x1="516.724" y1="310.91" x2="788.836" y2="310.91" gradientUnits="userSpaceOnUse">
<stop offset="0.00515464" stop-color="#C5BAFE"/>
<stop offset="1" stop-color="#7D6FF8"/>
</linearGradient>
<linearGradient id="paint26_linear_98_2" x1="506.223" y1="387.068" x2="579.901" y2="392.304" gradientUnits="userSpaceOnUse">
<stop offset="0.00515464" stop-color="#D79FFF"/>
<stop offset="1" stop-color="#C389FF"/>
</linearGradient>
<linearGradient id="paint27_linear_98_2" x1="577.196" y1="382.344" x2="520.445" y2="360.034" gradientUnits="userSpaceOnUse">
<stop offset="0.00515464" stop-color="#FFE5FF"/>
<stop offset="1" stop-color="#CF9AFF"/>
</linearGradient>
<linearGradient id="paint28_linear_98_2" x1="548.827" y1="346.544" x2="538.015" y2="386.858" gradientUnits="userSpaceOnUse">
<stop offset="0.00515464" stop-color="#D79FFF"/>
<stop offset="1" stop-color="#C389FF"/>
</linearGradient>
<linearGradient id="paint29_linear_98_2" x1="322.084" y1="297.79" x2="395.762" y2="303.026" gradientUnits="userSpaceOnUse">
<stop offset="0.00515464" stop-color="#D79FFF"/>
<stop offset="1" stop-color="#C389FF"/>
</linearGradient>
<linearGradient id="paint30_linear_98_2" x1="393.061" y1="293.07" x2="336.311" y2="270.76" gradientUnits="userSpaceOnUse">
<stop offset="0.00515464" stop-color="#FFE5FF"/>
<stop offset="1" stop-color="#CF9AFF"/>
</linearGradient>
<linearGradient id="paint31_linear_98_2" x1="364.693" y1="257.27" x2="353.88" y2="297.584" gradientUnits="userSpaceOnUse">
<stop offset="0.00515464" stop-color="#D79FFF"/>
<stop offset="1" stop-color="#C389FF"/>
</linearGradient>
</defs>
</svg>
