<svg width="201" height="200" viewBox="0 0 201 200" fill="none" xmlns="http://www.w3.org/2000/svg">
<path d="M85.3977 85.0829L141.828 28.6525C150.084 20.3971 163.499 20.3971 171.808 28.6525C180.064 36.908 180.064 50.3231 171.808 58.6328L115.378 115.063C107.123 123.319 93.7075 123.319 85.3977 115.063C83.4225 113.098 81.8551 110.763 80.7856 108.19C79.7161 105.618 79.1655 102.859 79.1655 100.073C79.1655 97.287 79.7161 94.5285 80.7856 91.956C81.8551 89.3835 83.4225 87.0477 85.3977 85.0829Z" fill="#00C4FF"/>
<path d="M22.0697 155.416C22.0697 161.322 24.4158 166.986 28.5918 171.162C32.7679 175.338 38.4319 177.684 44.3377 177.684C50.2435 177.684 55.9075 175.338 60.0835 171.162C64.2596 166.986 66.6057 161.322 66.6057 155.416C66.6057 149.511 64.2596 143.847 60.0835 139.671C55.9075 135.495 50.2435 133.148 44.3377 133.148C38.4319 133.148 32.7679 135.495 28.5918 139.671C24.4158 143.847 22.0697 149.511 22.0697 155.416Z" fill="#32A8FF"/>
<path d="M115.324 85.1366L171.808 141.567C180.064 149.822 180.064 163.238 171.808 171.547C163.553 179.803 150.138 179.803 141.828 171.547L85.3977 115.117C77.1423 106.861 77.1423 93.4464 85.3977 85.1366C93.6532 76.8269 107.068 76.8269 115.324 85.1366Z" fill="#00C4FF"/>
<path d="M58.8353 28.6272L115.29 85.0814C123.547 93.3385 123.547 106.78 115.29 115.037C107.033 123.294 93.5913 123.294 85.3347 115.037L28.8799 58.5825C20.6229 50.3255 20.6229 36.8837 28.8799 28.6272C37.175 20.3316 50.5782 20.3701 58.8353 28.6272Z" fill="#2FA6FC"/>
</svg>
