<svg width="201" height="200" viewBox="0 0 201 200" fill="none" xmlns="http://www.w3.org/2000/svg">
<g clip-path="url(#clip0_92_12)">
<path d="M81.2544 80.8367L153.659 8.43253C164.251 -2.1598 181.463 -2.1598 192.125 8.43253C202.718 19.0249 202.718 36.2374 192.125 46.8994L119.721 119.304C109.129 129.896 91.9164 129.896 81.2544 119.304C78.7201 116.783 76.709 113.786 75.3367 110.485C73.9644 107.184 73.2579 103.645 73.2579 100.07C73.2579 96.4955 73.9644 92.9561 75.3367 89.6554C76.709 86.3547 78.7201 83.3577 81.2544 80.8367Z" fill="#00C4FF"/>
<path d="M0 171.079C0 178.657 3.0102 185.924 8.36838 191.282C13.7266 196.64 20.9938 199.651 28.5714 199.651C36.149 199.651 43.4163 196.64 48.7745 191.282C54.1327 185.924 57.1429 178.657 57.1429 171.079C57.1429 163.502 54.1327 156.234 48.7745 150.876C43.4163 145.518 36.149 142.508 28.5714 142.508C20.9938 142.508 13.7266 145.518 8.36838 150.876C3.0102 156.234 0 163.502 0 171.079Z" fill="#32A8FF"/>
<path d="M119.652 80.9067L192.125 153.311C202.718 163.903 202.718 181.116 192.125 191.778C181.533 202.37 164.321 202.37 153.659 191.778L81.2544 119.374C70.662 108.781 70.662 91.5687 81.2544 80.9067C91.8467 70.2447 109.059 70.2447 119.652 80.9067Z" fill="#00C4FF"/>
<path d="M47.1728 8.40188L119.608 80.8367C130.203 91.4312 130.203 108.678 119.608 119.272C109.014 129.866 91.7673 129.866 81.1735 119.272L8.73799 46.8367C-1.85643 36.2423 -1.85643 18.9956 8.73799 8.40188C19.3812 -2.24202 36.5784 -2.19254 47.1728 8.40188Z" fill="#2FA6FC"/>
</g>
<defs>
<clipPath id="clip0_92_12">
<rect width="200.586" height="200" fill="white"/>
</clipPath>
</defs>
</svg>
